<svg  viewBox="0 0 14 14" fill="none" xmlns="http://www.w3.org/2000/svg">
<path fill-rule="evenodd" clip-rule="evenodd" d="M4.35475 0.621828C5.039 0.590328 5.25716 0.583328 7.00016 0.583328C8.74316 0.583328 8.96133 0.590912 9.645 0.621828C10.3287 0.652745 10.7953 0.761828 11.2037 0.919912C11.6312 1.08149 12.0192 1.33408 12.34 1.66074C12.6667 1.98099 12.9187 2.36833 13.0797 2.79649C13.2383 3.20483 13.3468 3.67149 13.3783 4.35399C13.4098 5.03941 13.4168 5.25758 13.4168 6.99999C13.4168 8.74299 13.4092 8.96116 13.3783 9.64541C13.3474 10.3279 13.2383 10.7946 13.0797 11.2029C12.9187 11.6311 12.6662 12.0191 12.34 12.3398C12.0192 12.6665 11.6312 12.9185 11.2037 13.0795C10.7953 13.2382 10.3287 13.3467 9.64616 13.3782C8.96133 13.4097 8.74316 13.4167 7.00016 13.4167C5.25716 13.4167 5.039 13.4091 4.35475 13.3782C3.67225 13.3472 3.20558 13.2382 2.79725 13.0795C2.36903 12.9185 1.98106 12.6661 1.66033 12.3398C1.33388 12.0194 1.08126 11.6316 0.920079 11.2035C0.761996 10.7952 0.653496 10.3285 0.621996 9.64599C0.590496 8.96058 0.583496 8.74241 0.583496 6.99999C0.583496 5.25699 0.591079 5.03883 0.621996 4.35516C0.652913 3.67149 0.761996 3.20483 0.920079 2.79649C1.0815 2.36838 1.33432 1.98059 1.66091 1.66016C1.98119 1.33379 2.36877 1.08117 2.79666 0.919912C3.205 0.761828 3.67166 0.653328 4.35416 0.621828H4.35475ZM9.59308 1.77683C8.91641 1.74591 8.71341 1.73949 7.00016 1.73949C5.28691 1.73949 5.08391 1.74591 4.40725 1.77683C3.78133 1.80541 3.44183 1.90983 3.2155 1.99791C2.91625 2.11458 2.70216 2.25283 2.47758 2.47741C2.26469 2.68453 2.10085 2.93666 1.99808 3.21533C1.91 3.44166 1.80558 3.78116 1.777 4.40708C1.74608 5.08374 1.73966 5.28674 1.73966 6.99999C1.73966 8.71324 1.74608 8.91624 1.777 9.59291C1.80558 10.2188 1.91 10.5583 1.99808 10.7847C2.10075 11.0629 2.26466 11.3155 2.47758 11.5226C2.68466 11.7355 2.93725 11.8994 3.2155 12.0021C3.44183 12.0902 3.78133 12.1946 4.40725 12.2232C5.08391 12.2541 5.28633 12.2605 7.00016 12.2605C8.714 12.2605 8.91641 12.2541 9.59308 12.2232C10.219 12.1946 10.5585 12.0902 10.7848 12.0021C11.0841 11.8854 11.2982 11.7472 11.5227 11.5226C11.7357 11.3155 11.8996 11.0629 12.0022 10.7847C12.0903 10.5583 12.1947 10.2188 12.2233 9.59291C12.2542 8.91624 12.2607 8.71324 12.2607 6.99999C12.2607 5.28674 12.2542 5.08374 12.2233 4.40708C12.1947 3.78116 12.0903 3.44166 12.0022 3.21533C11.8856 2.91608 11.7473 2.70199 11.5227 2.47741C11.3156 2.26454 11.0635 2.1007 10.7848 1.99791C10.5585 1.90983 10.219 1.80541 9.59308 1.77683ZM6.18058 8.97808C6.6383 9.16861 7.14797 9.19433 7.62254 9.05083C8.09711 8.90734 8.50714 8.60353 8.7826 8.1913C9.05806 7.77908 9.18186 7.284 9.13286 6.79064C9.08385 6.29728 8.86508 5.83623 8.51391 5.48624C8.29005 5.26252 8.01937 5.09122 7.72136 4.98466C7.42334 4.87811 7.10541 4.83895 6.79045 4.87002C6.47549 4.90109 6.17133 5.0016 5.89988 5.16432C5.62843 5.32704 5.39643 5.54793 5.22059 5.81107C5.04475 6.07422 4.92944 6.37308 4.88296 6.68614C4.83649 6.9992 4.86 7.31867 4.95181 7.62155C5.04362 7.92443 5.20144 8.20318 5.41392 8.43775C5.62639 8.67231 5.88823 8.85685 6.18058 8.97808ZM4.668 4.66783C4.97426 4.36156 5.33785 4.11862 5.738 3.95287C6.13816 3.78712 6.56704 3.70181 7.00016 3.70181C7.43329 3.70181 7.86217 3.78712 8.26232 3.95287C8.66248 4.11862 9.02606 4.36156 9.33233 4.66783C9.63859 4.97409 9.88154 5.33768 10.0473 5.73784C10.213 6.13799 10.2983 6.56687 10.2983 6.99999C10.2983 7.43312 10.213 7.862 10.0473 8.26215C9.88154 8.66231 9.63859 9.0259 9.33233 9.33216C8.7138 9.95069 7.87489 10.2982 7.00016 10.2982C6.12543 10.2982 5.28652 9.95069 4.668 9.33216C4.04947 8.71363 3.70198 7.87473 3.70198 6.99999C3.70198 6.12526 4.04947 5.28636 4.668 4.66783ZM11.0298 4.19299C11.1057 4.1214 11.1665 4.03531 11.2085 3.93981C11.2505 3.84432 11.273 3.74136 11.2745 3.63704C11.276 3.53271 11.2566 3.42915 11.2174 3.33247C11.1781 3.23579 11.1199 3.14796 11.0461 3.07418C10.9724 3.00041 10.8845 2.94219 10.7879 2.90296C10.6912 2.86374 10.5876 2.84431 10.4833 2.84583C10.379 2.84736 10.276 2.86979 10.1805 2.91182C10.085 2.95384 9.99892 3.0146 9.92733 3.09049C9.78809 3.2381 9.71186 3.43415 9.71482 3.63704C9.71778 3.83993 9.79969 4.03367 9.94317 4.17715C10.0866 4.32063 10.2804 4.40254 10.4833 4.4055C10.6862 4.40846 10.8822 4.33223 11.0298 4.19299Z" />
</svg>
