<svg width="14" height="14" viewBox="0 0 14 14" fill="none" xmlns="http://www.w3.org/2000/svg">
<path fill-rule="evenodd" clip-rule="evenodd" d="M0.583313 1.65542C0.583313 1.37106 0.696273 1.09835 0.897343 0.897284C1.09841 0.696213 1.37112 0.583253 1.65548 0.583253H12.3433C12.4842 0.583023 12.6238 0.61059 12.7541 0.664376C12.8843 0.718161 13.0027 0.797109 13.1024 0.896699C13.2021 0.99629 13.2811 1.11457 13.3351 1.24476C13.389 1.37495 13.4167 1.5145 13.4166 1.65542V12.3433C13.4168 12.4842 13.3892 12.6238 13.3353 12.754C13.2815 12.8843 13.2025 13.0027 13.1028 13.1024C13.0032 13.202 12.8849 13.2811 12.7546 13.335C12.6244 13.3889 12.4848 13.4167 12.3439 13.4166H1.65548C1.51463 13.4166 1.37516 13.3888 1.24504 13.3349C1.11493 13.281 0.996705 13.202 0.897137 13.1024C0.79757 13.0027 0.718607 12.8845 0.66476 12.7543C0.610912 12.6242 0.583237 12.4847 0.583313 12.3438V1.65542ZM5.66298 5.47625H7.40073V6.34892C7.65156 5.84725 8.29323 5.39575 9.25748 5.39575C11.1061 5.39575 11.5441 6.395 11.5441 8.22842V11.6246H9.6734V8.64609C9.6734 7.60192 9.42256 7.01275 8.78556 7.01275C7.90181 7.01275 7.53431 7.648 7.53431 8.64609V11.6246H5.66298V5.47625ZM2.45465 11.5447H4.32598V5.39575H2.45465V11.5441V11.5447ZM4.59373 3.39025C4.59726 3.55048 4.56875 3.7098 4.50987 3.85885C4.45099 4.00791 4.36293 4.14371 4.25086 4.25827C4.13879 4.37284 4.00497 4.46386 3.85725 4.52601C3.70952 4.58815 3.55087 4.62016 3.3906 4.62016C3.23034 4.62016 3.07169 4.58815 2.92396 4.52601C2.77624 4.46386 2.64241 4.37284 2.53034 4.25827C2.41827 4.14371 2.33022 4.00791 2.27134 3.85885C2.21246 3.7098 2.18395 3.55048 2.18748 3.39025C2.19441 3.07575 2.3242 2.77646 2.54908 2.55649C2.77395 2.33651 3.07603 2.21333 3.3906 2.21333C3.70518 2.21333 4.00725 2.33651 4.23213 2.55649C4.45701 2.77646 4.5868 3.07575 4.59373 3.39025Z" fill=""/>
</svg>
