<svg width="20" height="20" viewBox="0 0 20 20" fill="none" xmlns="http://www.w3.org/2000/svg">
<path d="M10 10.8333C11.3807 10.8333 12.5 9.71406 12.5 8.33334C12.5 6.95263 11.3807 5.83334 10 5.83334C8.61929 5.83334 7.5 6.95263 7.5 8.33334C7.5 9.71406 8.61929 10.8333 10 10.8333Z" stroke="#C0C0C0" stroke-width="2" stroke-linecap="round" stroke-linejoin="round"/>
<path d="M9.99992 1.66667C8.23181 1.66667 6.53612 2.36905 5.28587 3.61929C4.03563 4.86954 3.33325 6.56523 3.33325 8.33334C3.33325 9.91 3.66825 10.9417 4.58325 12.0833L9.99992 18.3333L15.4166 12.0833C16.3316 10.9417 16.6666 9.91 16.6666 8.33334C16.6666 6.56523 15.9642 4.86954 14.714 3.61929C13.4637 2.36905 11.768 1.66667 9.99992 1.66667V1.66667Z" stroke="#C0C0C0" stroke-width="2" stroke-linecap="round" stroke-linejoin="round"/>
</svg>
