<svg width="601" height="601" viewBox="0 0 601 601" fill="none" xmlns="http://www.w3.org/2000/svg">
<g clip-path="url(#clip0_1335_1196)">
<path d="M18.3488 410.353L24.4262 429.456C24.4385 429.527 24.4624 429.594 24.4972 429.656C24.2101 429.164 23.9766 428.643 23.8004 428.101L18.2391 410.469L1.0714 356.566C-0.451185 351.766 3.00688 346.824 8.4843 346.017L70.1037 336.798C59.9385 365.603 42.0288 391.057 18.3488 410.353Z" fill="#DCC9A3"/>
<path d="M270.38 177.624C270.272 177.666 270.16 177.696 270.045 177.714C247.464 183.456 219.18 193.34 197.954 209.837C183.8 220.804 170.716 236.875 159.651 253.404C140.645 281.688 94.9609 333.063 94.9609 333.063C94.9609 333.063 130.625 265.321 130.896 225.321C131.013 220.533 129.019 210.656 129.013 210.566C128.974 210.166 128.871 209.579 128.813 208.824C127.342 191.598 137.703 177.166 152.477 169.966C165.221 163.801 180.025 163.426 193.064 168.94L193.38 169.069C209.664 176.069 235.213 182.082 269.219 174.933L269.277 174.792C269.479 174.696 269.699 174.647 269.922 174.647C270.752 174.647 271.434 175.33 271.434 176.159C271.434 176.744 271.096 177.278 270.567 177.527L270.387 177.598L270.38 177.624Z" fill="#DCC9A3"/>
<path d="M130.895 225.347C130.624 265.295 94.9598 333.088 94.9598 333.088C90.2533 346.49 84.8701 359.645 78.8307 372.501C69.0307 393.372 55.392 417.727 39.663 432.856C34.8953 437.405 26.5082 435.65 24.5146 429.676C24.5146 429.611 24.463 429.547 24.4436 429.482L18.3469 410.392C42.0294 391.1 55.6243 363.737 70.1082 336.843C71.7314 333.83 76.1598 318.992 76.5598 309.476C78.8565 250.121 -3.55636 210.166 4.34687 193.992C6.73396 189.082 18.0565 185.185 65.3404 196.572L129.044 210.605C129.018 210.682 131.024 220.553 130.895 225.347Z" fill="#B68250"/>
<path d="M263.651 298.617C265.238 297.127 266.026 294.914 266.026 292.056C266.131 286.702 264.727 281.425 261.974 276.83C259.229 272.425 255.351 268.835 250.748 266.437C245.948 263.856 240.337 262.566 233.916 262.566C229.615 262.553 225.343 263.262 221.277 264.663C217.262 266.043 213.561 268.21 210.393 271.037C207.06 274.024 204.433 277.716 202.703 281.843C200.789 286.217 199.832 291.379 199.832 297.327C199.832 305.43 201.46 312.183 204.716 317.585C207.878 322.898 212.575 327.132 218.187 329.727C224.257 332.5 230.869 333.884 237.542 333.779C241.982 333.851 246.416 333.394 250.748 332.417C254.619 331.48 257.647 330.082 259.832 328.224C261.941 326.525 263.154 323.945 263.116 321.237C263.115 319.561 262.656 317.916 261.787 316.482V316.443C260.44 314.272 257.655 313.437 255.335 314.508C253.601 315.281 251.822 315.946 250.006 316.501C246.447 317.637 242.729 318.203 238.993 318.179C234.142 318.179 229.948 317.082 226.413 314.888C223.587 313.14 221.626 310.456 220.516 306.863L257.148 301.443C259.909 301.074 262.077 300.132 263.651 298.617ZM219.174 292.856C219.578 288.319 221.037 284.759 223.548 282.179C226.304 279.365 230.115 277.83 234.051 277.946C238.064 277.946 241.092 279.061 243.135 281.288C245.057 283.253 246.243 285.822 246.49 288.559L219.174 292.856Z" fill="#DCC9A3"/>
<path d="M385.549 277.54C382.606 272.518 378.14 268.561 372.8 266.243C367.342 263.805 361.073 262.59 353.994 262.598C349.208 262.539 344.435 263.114 339.8 264.308C336.106 265.223 332.566 266.68 329.297 268.63C327.774 269.519 326.455 270.72 325.426 272.153C325.166 272.511 324.937 272.891 324.742 273.288C323.964 274.894 323.593 276.667 323.665 278.45V346.921C323.665 350.585 324.555 353.101 326.349 354.495C328.142 355.888 330.968 356.559 334.833 356.559C336.63 356.572 338.426 356.436 340.2 356.153C342.412 355.798 344.059 353.877 344.071 351.637V330.495C345.035 330.869 346.048 331.224 347.11 331.559C350.15 332.468 353.312 332.903 356.484 332.85C362.469 332.945 368.384 331.546 373.691 328.779C378.78 326.06 382.963 321.91 385.723 316.843C388.644 311.617 390.104 305.095 390.104 297.275C390.104 289.224 388.586 282.645 385.549 277.54ZM365.084 311.772C362.278 314.998 358.368 316.611 353.304 316.611C350.659 316.656 348.04 316.088 345.652 314.953C345.071 314.675 344.504 314.379 343.949 314.05V281.314C345.302 280.509 346.756 279.885 348.271 279.456C350.137 278.938 352.065 278.684 354 278.701C356.825 278.635 359.619 279.303 362.11 280.637C364.486 282.004 366.353 284.108 367.426 286.63C368.665 289.353 369.284 292.91 369.284 297.301C369.284 303.753 367.897 308.572 365.084 311.772Z" fill="#AD2DA5"/>
<path d="M470.16 298.308C470.16 305.585 468.689 311.912 465.747 317.288C462.915 322.556 458.595 326.875 453.328 329.708C448.007 332.585 441.749 334.026 434.553 334.03C427.457 334.03 421.22 332.604 415.844 329.753C410.542 326.979 406.196 322.673 403.373 317.398C400.435 312.056 398.968 305.673 398.973 298.25C398.977 290.826 400.482 284.525 403.489 279.346C406.411 274.124 410.763 269.843 416.031 267.004C421.386 264.063 427.562 262.592 434.56 262.592C441.657 262.592 447.867 264.063 453.192 267.004C458.457 269.882 462.786 274.211 465.663 279.475C468.665 284.848 470.164 291.125 470.16 298.308ZM434.573 278.953C430.48 278.82 426.577 280.717 424.153 284.017C421.573 287.372 420.282 292.135 420.282 298.308C420.282 304.553 421.545 309.34 424.069 312.669C426.594 315.998 430.093 317.645 434.566 317.611C439.057 317.611 442.558 315.929 445.069 312.566C447.581 309.202 448.842 304.45 448.85 298.308C448.85 292.235 447.59 287.503 445.069 284.114C442.549 280.725 439.048 279.022 434.566 279.004L434.573 278.953Z" fill="#AD2DA5"/>
<path d="M544.387 288.521V328.888C544.405 331.166 542.698 333.118 540.439 333.404H540.426C538.582 333.648 536.724 333.767 534.864 333.759C530.882 333.759 527.942 333.045 526.045 331.617C524.148 330.19 523.2 327.63 523.2 323.94V289.23C523.2 285.721 522.17 283.14 520.11 281.488C518.077 279.83 515.38 279.017 512.077 279.017C509.86 278.993 507.652 279.306 505.529 279.946C503.663 280.515 501.853 281.253 500.122 282.153V328.94C500.139 331.228 498.413 333.185 496.142 333.456C494.299 333.701 492.44 333.817 490.58 333.804C486.593 333.804 483.673 333.093 481.819 331.669C479.966 330.245 479.032 327.68 479.019 323.972V279.714C478.942 277.644 479.459 275.596 480.51 273.811C481.637 272.121 483.11 270.689 484.832 269.611C488.424 267.27 492.366 265.515 496.509 264.411C501.621 262.989 506.908 262.296 512.213 262.353C522.458 262.353 530.382 264.609 535.987 269.121C541.591 273.632 544.391 280.099 544.387 288.521Z" fill="#AD2DA5"/>
<path d="M559.54 268.675H553.604C553.383 268.323 553.197 267.949 553.05 267.559C552.868 267.119 552.774 266.648 552.772 266.172C552.704 265.381 552.971 264.596 553.508 264.011C553.984 263.554 554.622 263.303 555.282 263.314H572.14C572.359 263.711 572.545 264.125 572.695 264.553C572.877 265.042 572.971 265.56 572.972 266.082C573.064 266.832 572.793 267.582 572.243 268.101C571.732 268.482 571.106 268.678 570.469 268.656H566.088V284.643C566.082 285.339 565.559 285.931 564.869 286.024C564.267 286.093 563.662 286.128 563.056 286.127C562.152 286.168 561.254 285.944 560.475 285.482C559.83 285.082 559.604 284.243 559.604 282.94L559.54 268.675ZM593.088 271.114L590.508 279.598C590.312 280.277 589.776 280.806 589.095 280.992C588.488 281.135 587.866 281.203 587.243 281.192C586.51 281.211 585.779 281.095 585.088 280.85C584.528 280.666 584.088 280.224 583.908 279.663L581.069 271.108L580.624 284.656C580.599 285.351 580.088 285.939 579.404 286.062C578.872 286.155 578.332 286.202 577.792 286.204C576.898 286.246 576.008 286.055 575.211 285.65C574.544 285.204 574.18 284.421 574.269 283.624L575.263 264.637C575.639 264.192 576.099 263.826 576.617 263.559C577.509 263.093 578.509 262.87 579.514 262.914C580.527 262.877 581.534 263.099 582.437 263.559C583.182 263.978 583.734 264.673 583.972 265.495L587.101 274.146L590.746 263.643C591.187 263.418 591.655 263.253 592.14 263.153C592.776 263.016 593.425 262.947 594.075 262.946C595.122 262.907 596.162 263.129 597.101 263.592C597.797 263.9 598.307 264.521 598.475 265.262C598.566 265.908 598.675 266.817 598.798 268.114C598.921 269.411 599.05 270.895 599.217 272.572C599.385 274.25 599.54 275.927 599.669 277.617C599.798 279.308 599.921 280.843 600.011 282.243C600.069 283.043 600.114 283.74 600.153 284.327C600.206 285.115 599.699 285.841 598.94 286.062C598.379 286.192 597.805 286.25 597.23 286.237C596.421 286.275 595.617 286.094 594.901 285.714C594.232 285.26 593.828 284.504 593.824 283.695C593.682 282.159 593.574 280.417 593.501 278.469C593.437 276.533 593.321 274.075 593.14 271.153L593.088 271.114Z" fill="#AD2DA5"/>
<path d="M307.266 307.25H280.511C278.349 307.271 276.413 305.867 275.763 303.805C275.297 302.327 275.066 300.786 275.079 299.237C275.079 296.329 275.763 294.211 277.13 292.882C278.612 291.518 280.583 290.806 282.595 290.908H309.317C311.45 290.905 313.355 292.278 314.027 294.301C314.529 295.754 314.782 297.281 314.775 298.817C314.775 301.734 314.07 303.871 312.659 305.23C311.202 306.593 309.26 307.32 307.266 307.25Z" fill="#AD2DA5"/>
</g>
<defs>
<clipPath id="clip0_1335_1196">
<rect width="600" height="600" fill="white" transform="translate(0.703125 0.540039)"/>
</clipPath>
</defs>
</svg>
