<svg  viewBox="0 0 90 41" fill="none" xmlns="http://www.w3.org/2000/svg">
<path d="M2.64568 36.7943L3.55729 39.6598C3.55913 39.6703 3.56271 39.6804 3.56794 39.6898C3.52487 39.6159 3.48984 39.5377 3.46342 39.4566L2.62923 36.8117L0.0540687 28.7262C-0.174318 28.0062 0.344391 27.2649 1.166 27.144L10.4089 25.7611C8.88413 30.0818 6.19768 33.9 2.64568 36.7943Z" fill="#DCC9A3"/>
<path d="M40.4505 1.88493C40.4342 1.89122 40.4174 1.89577 40.4002 1.89848C37.0131 2.75977 32.7705 4.24235 29.5866 6.71687C27.4634 8.36203 25.5008 10.7727 23.8411 13.252C20.9902 17.4946 14.1376 25.2007 14.1376 25.2007C14.1376 25.2007 19.4872 15.0394 19.5279 9.03945C19.5453 8.32138 19.2463 6.83977 19.2453 6.82622C19.2395 6.76622 19.224 6.67816 19.2153 6.56493C18.9947 3.98106 20.5489 1.81622 22.765 0.736222C24.6766 -0.188552 26.8972 -0.244681 28.8531 0.582352L28.9005 0.601705C31.3431 1.6517 35.1753 2.55364 40.2763 1.48138L40.285 1.46009C40.3153 1.44577 40.3483 1.43841 40.3818 1.43841C40.5062 1.43841 40.6086 1.5408 40.6086 1.66526C40.6086 1.75293 40.5578 1.83306 40.4785 1.87042L40.4514 1.88106L40.4505 1.88493Z" fill="#DCC9A3"/>
<path d="M19.5279 9.04333C19.4873 15.0356 14.1376 25.2046 14.1376 25.2046C13.4316 27.2149 12.6242 29.1881 11.7183 31.1166C10.2483 34.2472 8.20244 37.9004 5.84309 40.1698C5.12793 40.852 3.86986 40.5888 3.57083 39.6927C3.57083 39.683 3.56309 39.6733 3.56019 39.6637L2.64567 36.8001C6.19806 33.9064 8.23728 29.8019 10.4099 25.7678C10.6533 25.3158 11.3176 23.0901 11.3776 21.6627C11.7221 12.7595 -0.639814 6.76623 0.54567 4.3401C0.903735 3.60365 2.60212 3.01913 9.6947 4.7272L19.2502 6.83204C19.2463 6.84365 19.5473 8.3243 19.5279 9.04333Z" fill="#B68250"/>
<path d="M39.4412 20.034C39.6792 19.8104 39.7973 19.4785 39.7973 19.0498C39.8131 18.2466 39.6025 17.455 39.1895 16.7659C38.7778 16.105 38.1962 15.5666 37.5057 15.2069C36.7857 14.8198 35.944 14.6262 34.9808 14.6262C34.3357 14.6243 33.6949 14.7306 33.085 14.9407C32.4827 15.1477 31.9276 15.4728 31.4525 15.8969C30.9525 16.3449 30.5585 16.8987 30.2989 17.5178C30.0118 18.174 29.8683 18.9482 29.8683 19.8404C29.8683 21.0559 30.1124 22.0688 30.6008 22.8791C31.0752 23.6761 31.7797 24.3111 32.6215 24.7004C33.5319 25.1163 34.5239 25.3239 35.5247 25.3081C36.1908 25.319 36.8558 25.2505 37.5057 25.104C38.0863 24.9633 38.5405 24.7536 38.8683 24.4749C39.1846 24.2201 39.3666 23.8331 39.3608 23.4269C39.3607 23.1754 39.2918 22.9287 39.1615 22.7136V22.7078C38.9594 22.3822 38.5416 22.2569 38.1937 22.4175C37.9336 22.5334 37.6667 22.6333 37.3944 22.7165C36.8605 22.887 36.3029 22.9718 35.7425 22.9681C35.0147 22.9681 34.3857 22.8036 33.8554 22.4746C33.4315 22.2123 33.1373 21.8098 32.9708 21.2707L38.4657 20.4578C38.8799 20.4024 39.205 20.2611 39.4412 20.034ZM32.7695 19.1698C32.8302 18.4892 33.0489 17.9552 33.4257 17.5682C33.839 17.1461 34.4107 16.9158 35.0012 16.9333C35.6031 16.9333 36.0573 17.1004 36.3637 17.4346C36.652 17.7293 36.8299 18.1146 36.867 18.5252L32.7695 19.1698Z" fill="#DCC9A3"/>
<path d="M57.7257 16.8724C57.2843 16.1191 56.6143 15.5254 55.8134 15.1778C54.9947 14.812 54.0544 14.6298 52.9925 14.6311C52.2746 14.6223 51.5587 14.7085 50.8634 14.8875C50.3092 15.0248 49.7783 15.2434 49.2879 15.5359C49.0595 15.6693 48.8616 15.8493 48.7073 16.0643C48.6682 16.118 48.6339 16.175 48.6047 16.2346C48.4879 16.4754 48.4324 16.7414 48.4431 17.0088V27.2794C48.4431 27.8291 48.5767 28.2065 48.8457 28.4156C49.1147 28.6246 49.5386 28.7253 50.1183 28.7253C50.3879 28.7272 50.6572 28.7068 50.9234 28.6643C51.2552 28.6111 51.5022 28.3229 51.5041 27.9869V24.8156C51.6486 24.8717 51.8005 24.9249 51.9599 24.9753C52.4159 25.1115 52.8902 25.1768 53.366 25.1688C54.2637 25.1831 55.1509 24.9732 55.947 24.5582C56.7103 24.1503 57.3378 23.5278 57.7518 22.7678C58.1899 21.984 58.4089 21.0056 58.4089 19.8327C58.4089 18.6249 58.1812 17.6381 57.7257 16.8724ZM54.656 22.0072C54.235 22.4911 53.6486 22.733 52.8889 22.733C52.4922 22.7398 52.0994 22.6546 51.7412 22.4843C51.6541 22.4427 51.5689 22.3982 51.4857 22.3488V17.4385C51.6887 17.3177 51.9068 17.224 52.1341 17.1598C52.4138 17.0821 52.7031 17.0439 52.9934 17.0465C53.4171 17.0367 53.8362 17.1367 54.2099 17.3369C54.5663 17.5419 54.8463 17.8576 55.0073 18.2359C55.1931 18.6443 55.286 19.1778 55.286 19.8365C55.286 20.8043 55.0779 21.5272 54.656 22.0072Z" fill="#F1F2F2"/>
<path d="M70.4176 19.9875C70.4176 21.0791 70.197 22.0282 69.7557 22.8346C69.3309 23.6248 68.683 24.2727 67.8928 24.6975C67.0947 25.1291 66.156 25.3452 65.0767 25.3459C64.0122 25.3459 63.0766 25.132 62.2702 24.7043C61.475 24.2883 60.8231 23.6424 60.3996 22.8511C59.959 22.0498 59.7389 21.0924 59.7396 19.9788C59.7402 18.8652 59.966 17.9201 60.417 17.1433C60.8554 16.36 61.5081 15.7177 62.2983 15.292C63.1015 14.8507 64.0279 14.6301 65.0776 14.6301C66.1421 14.6301 67.0738 14.8507 67.8725 15.292C68.6621 15.7236 69.3115 16.373 69.7431 17.1627C70.1934 17.9685 70.4183 18.9101 70.4176 19.9875ZM65.0796 17.0843C64.4657 17.0644 63.8801 17.349 63.5167 17.844C63.1296 18.3472 62.936 19.0617 62.936 19.9875C62.936 20.9243 63.1254 21.6424 63.5041 22.1417C63.8828 22.6411 64.4077 22.8881 65.0786 22.883C65.7521 22.883 66.2773 22.6307 66.6541 22.1262C67.0308 21.6217 67.2199 20.9088 67.2212 19.9875C67.2212 19.0766 67.0322 18.3668 66.6541 17.8585C66.276 17.3501 65.7509 17.0946 65.0786 17.092L65.0796 17.0843Z" fill="#F1F2F2"/>
<path d="M81.5515 18.5194V24.5746C81.5542 24.9162 81.2981 25.2091 80.9592 25.252H80.9573C80.6807 25.2886 80.402 25.3064 80.1231 25.3053C79.5257 25.3053 79.0847 25.1981 78.8002 24.984C78.5157 24.7698 78.3734 24.3859 78.3734 23.8323V18.6259C78.3734 18.0994 78.2189 17.7123 77.9099 17.4646C77.605 17.2159 77.2005 17.094 76.705 17.094C76.3724 17.0903 76.0413 17.1372 75.7228 17.2333C75.4429 17.3186 75.1715 17.4293 74.9118 17.5643V24.5823C74.9142 24.9255 74.6555 25.2191 74.3147 25.2598C74.0382 25.2965 73.7594 25.314 73.4805 25.312C72.8825 25.312 72.4444 25.2053 72.1663 24.9917C71.8883 24.7781 71.7483 24.3933 71.7463 23.8372V17.1985C71.7348 16.888 71.8123 16.5808 71.9699 16.313C72.1389 16.0594 72.36 15.8447 72.6183 15.683C73.1571 15.3319 73.7484 15.0686 74.3699 14.903C75.1366 14.6897 75.9296 14.5858 76.7254 14.5943C78.2621 14.5943 79.4508 14.9327 80.2915 15.6094C81.1322 16.2862 81.5522 17.2562 81.5515 18.5194Z" fill="#F1F2F2"/>
<path d="M83.8247 15.5427H82.9344C82.9011 15.4898 82.8732 15.4337 82.8512 15.3752C82.8239 15.3092 82.8098 15.2386 82.8096 15.1672C82.7993 15.0485 82.8394 14.9308 82.9199 14.843C82.9913 14.7745 83.087 14.7368 83.186 14.7385H85.7147C85.7475 14.798 85.7754 14.8601 85.798 14.9243C85.8252 14.9976 85.8394 15.0753 85.8396 15.1536C85.8533 15.2662 85.8127 15.3787 85.7302 15.4565C85.6536 15.5137 85.5597 15.5431 85.4641 15.5398H84.807V17.9378C84.806 18.0422 84.7276 18.131 84.6241 18.1449C84.5338 18.1554 84.443 18.1606 84.3521 18.1604C84.2165 18.1666 84.0819 18.133 83.965 18.0636C83.8683 18.0036 83.8344 17.8778 83.8344 17.6823L83.8247 15.5427ZM88.857 15.9085L88.4699 17.1811C88.4406 17.2829 88.3601 17.3622 88.2579 17.3901C88.167 17.4117 88.0737 17.4217 87.9802 17.4201C87.8703 17.423 87.7606 17.4057 87.657 17.3688C87.5729 17.3413 87.5069 17.275 87.4799 17.1907L87.0541 15.9075L86.9873 17.9398C86.9835 18.044 86.907 18.1322 86.8044 18.1507C86.7245 18.1646 86.6436 18.1716 86.5625 18.172C86.4284 18.1783 86.295 18.1496 86.1754 18.0888C86.0753 18.022 86.0207 17.9044 86.0341 17.7849L86.1831 14.9369C86.2395 14.8701 86.3086 14.8152 86.3863 14.7752C86.5201 14.7053 86.6701 14.6719 86.8209 14.6785C86.9728 14.673 87.1238 14.7062 87.2592 14.7752C87.371 14.8381 87.4538 14.9424 87.4896 15.0656L87.9589 16.3633L88.5057 14.7878C88.5718 14.7541 88.642 14.7293 88.7147 14.7143C88.8101 14.6938 88.9075 14.6834 89.005 14.6833C89.162 14.6774 89.318 14.7107 89.4589 14.7801C89.5632 14.8263 89.6398 14.9194 89.665 15.0307C89.6786 15.1275 89.695 15.264 89.7134 15.4585C89.7318 15.653 89.7512 15.8756 89.7763 16.1272C89.8015 16.3788 89.8247 16.6304 89.8441 16.884C89.8634 17.1375 89.8818 17.3678 89.8954 17.5778C89.9041 17.6978 89.9109 17.8023 89.9167 17.8904C89.9246 18.0087 89.8485 18.1175 89.7347 18.1507C89.6506 18.1701 89.5645 18.1788 89.4783 18.1769C89.3569 18.1826 89.2362 18.1555 89.1289 18.0985C89.0286 18.0303 88.968 17.9169 88.9673 17.7956C88.946 17.5652 88.9298 17.304 88.9189 17.0117C88.9092 16.7214 88.8918 16.3527 88.8647 15.9143L88.857 15.9085Z" fill="#F1F2F2"/>
<path d="M45.9831 21.3288H41.9699C41.6456 21.332 41.3553 21.1213 41.2576 20.812C41.1878 20.5904 41.1531 20.3592 41.155 20.1269C41.155 19.6907 41.2576 19.373 41.4628 19.1736C41.6851 18.9691 41.9807 18.8622 42.2825 18.8775H46.2909C46.6107 18.877 46.8966 19.0831 46.9973 19.3865C47.0726 19.6044 47.1105 19.8334 47.1096 20.064C47.1096 20.5014 47.0038 20.822 46.7921 21.0259C46.5735 21.2303 46.2822 21.3393 45.9831 21.3288Z" fill="#F1F2F2"/>
</svg>
