<svg viewBox="0 0 14 14" fill="none" xmlns="http://www.w3.org/2000/svg">
<path d="M11.2707 3.2445C11.1821 3.19868 11.0959 3.14845 11.0123 3.094C10.7694 2.93342 10.5468 2.74423 10.3491 2.5305C9.85381 1.96408 9.66889 1.3895 9.60123 0.987583H9.60356C9.54698 0.653333 9.57031 0.4375 9.57439 0.4375H7.31981V9.15425C7.31981 9.27092 7.31981 9.387 7.31514 9.50133C7.31514 9.51533 7.31339 9.52817 7.31281 9.54392C7.31281 9.54975 7.31281 9.55675 7.31106 9.56317V9.56842C7.28738 9.88109 7.18722 10.1832 7.01939 10.448C6.85155 10.7129 6.62118 10.9325 6.34856 11.0874C6.06414 11.2492 5.74245 11.3341 5.41523 11.3336C4.36523 11.3336 3.51356 10.4773 3.51356 9.41967C3.51356 8.3615 4.36523 7.50517 5.41523 7.50517C5.61414 7.50517 5.81189 7.53667 6.00089 7.5985L6.00381 5.3025C5.42982 5.22845 4.84671 5.27419 4.29128 5.43684C3.73586 5.59949 3.22019 5.87552 2.77681 6.2475C2.38823 6.58498 2.06152 6.98769 1.81139 7.4375C1.71631 7.60142 1.35698 8.26117 1.31381 9.331C1.28639 9.93767 1.46898 10.5677 1.55589 10.8273V10.8331C1.61014 10.9859 1.82248 11.5086 2.16781 11.949C2.44629 12.3025 2.77532 12.6131 3.14431 12.8707V12.8648L3.14956 12.8707C4.24039 13.6115 5.45081 13.5631 5.45081 13.5631C5.66023 13.5543 6.36198 13.5631 7.15881 13.1857C8.04256 12.7668 8.54539 12.1432 8.54539 12.1432C8.86688 11.7706 9.12253 11.3459 9.30139 10.8873C9.50556 10.3507 9.57323 9.70783 9.57323 9.45117V4.82592C9.60064 4.84225 9.96523 5.08317 9.96523 5.08317C9.96523 5.08317 10.4902 5.41975 11.3086 5.6385C11.8955 5.79425 12.6871 5.8275 12.6871 5.8275V3.58925C12.41 3.61958 11.8471 3.53208 11.2701 3.24508L11.2707 3.2445Z" />
</svg>
