<svg  viewBox="0 0 14 14" fill="none" xmlns="http://www.w3.org/2000/svg">
<path d="M13.7916 2.87991C13.3045 3.09574 12.7812 3.24158 12.2311 3.30749C12.7987 2.96787 13.2234 2.43335 13.4258 1.80366C12.8925 2.1204 12.3089 2.34336 11.7003 2.46283C11.291 2.02583 10.7489 1.73618 10.1582 1.63885C9.5674 1.54152 8.96103 1.64196 8.43319 1.92456C7.90536 2.20716 7.48559 2.65612 7.23906 3.20174C6.99253 3.74735 6.93303 4.3591 7.0698 4.94199C5.98929 4.88774 4.93225 4.6069 3.9673 4.11769C3.00235 3.62848 2.15104 2.94184 1.46864 2.10233C1.2353 2.50483 1.10114 2.97149 1.10114 3.46849C1.10088 3.91591 1.21106 4.35647 1.4219 4.75109C1.63274 5.14571 1.93773 5.48218 2.3098 5.73066C1.8783 5.71693 1.45631 5.60033 1.07897 5.39058V5.42558C1.07893 6.05309 1.29599 6.6613 1.69333 7.14699C2.09066 7.63269 2.6438 7.96595 3.25889 8.09024C2.85859 8.19858 2.43892 8.21454 2.03155 8.13691C2.20509 8.67685 2.54313 9.14901 2.99835 9.48728C3.45357 9.82556 4.00317 10.013 4.57022 10.0234C3.60762 10.7791 2.41882 11.189 1.19505 11.1872C0.978276 11.1872 0.761681 11.1746 0.546387 11.1492C1.78858 11.9479 3.23459 12.3718 4.71139 12.3702C9.71055 12.3702 12.4435 8.22966 12.4435 4.63866C12.4435 4.52199 12.4406 4.40416 12.4353 4.28749C12.9669 3.90306 13.4258 3.42702 13.7904 2.88166L13.7916 2.87991Z" />
</svg>
