<svg  viewBox="0 0 14 14" fill="none" xmlns="http://www.w3.org/2000/svg">
<g clip-path="url(#clip0_1428_1558)">
<path d="M13.7082 3.79575C13.6289 3.51297 13.4745 3.25696 13.2614 3.05492C13.0422 2.84667 12.7736 2.69771 12.4809 2.62209C11.3854 2.33334 6.99637 2.33334 6.99637 2.33334C5.16665 2.31252 3.33737 2.40408 1.51887 2.6075C1.22615 2.68871 0.958034 2.841 0.738372 3.05084C0.522538 3.2585 0.366205 3.51459 0.284538 3.79517C0.0883593 4.85202 -0.00695791 5.92512 -0.000128258 7C-0.00712826 8.07392 0.0879551 9.14667 0.284538 10.2048C0.364455 10.4843 0.520205 10.7392 0.736622 10.9451C0.953038 11.151 1.22254 11.2998 1.51887 11.3785C2.62896 11.6667 6.99637 11.6667 6.99637 11.6667C8.82842 11.6875 10.66 11.596 12.4809 11.3925C12.7736 11.3169 13.0422 11.1679 13.2614 10.9597C13.4744 10.7577 13.6287 10.5016 13.7076 10.2188C13.9089 9.16239 14.0068 8.08885 13.9999 7.01342C14.015 5.93344 13.9173 4.85483 13.7082 3.79517V3.79575ZM5.60104 8.99734V5.00325L9.2527 7.00059L5.60104 8.99734Z" fill="#AD2DA5"/>
</g>
<defs>
<clipPath id="clip0_1428_1558">
<rect width="14" height="14" fill="white"/>
</clipPath>
</defs>
</svg>
