<svg width="14" height="10" viewBox="0 0 14 10" fill="none" xmlns="http://www.w3.org/2000/svg">
<path d="M13.7083 1.79563C13.6291 1.51285 13.4746 1.25683 13.2615 1.0548C13.0423 0.84655 12.7737 0.697586 12.481 0.621965C11.3855 0.333215 6.99649 0.333215 6.99649 0.333215C5.16677 0.312397 3.33749 0.403958 1.51899 0.607381C1.22627 0.688589 0.958156 0.840882 0.738494 1.05071C0.52266 1.25838 0.366327 1.51446 0.28466 1.79505C0.0884814 2.8519 -0.00683584 3.925 -6.18742e-06 4.99988C-0.00700619 6.0738 0.0880771 7.14655 0.28466 8.20471C0.364577 8.48413 0.520327 8.73905 0.736744 8.94497C0.95316 9.15088 1.22266 9.29963 1.51899 9.37838C2.62908 9.66655 6.99649 9.66655 6.99649 9.66655C8.82855 9.68739 10.6602 9.59583 12.481 9.39238C12.7737 9.31676 13.0423 9.1678 13.2615 8.95955C13.4746 8.75755 13.6288 8.5015 13.7077 8.21871C13.909 7.16227 14.0069 6.08873 14 5.0133C14.0151 3.93332 13.9174 2.85471 13.7083 1.79505V1.79563ZM5.60116 6.99721V3.00313L9.25283 5.00046L5.60116 6.99721Z" fill="white"/>
</svg>
