<svg width="20"  viewBox="0 0 12 13" fill="none" xmlns="http://www.w3.org/2000/svg">
<path d="M11.3273 6.93592C11.5949 6.68468 11.7276 6.31161 11.7276 5.82979C11.7453 4.92716 11.5086 4.03746 11.0445 3.26296C10.5817 2.52021 9.92805 1.91504 9.15202 1.51077C8.34282 1.07571 7.3969 0.858183 6.31437 0.858183C5.58935 0.856008 4.86911 0.97554 4.18368 1.21167C3.50673 1.44431 2.88286 1.80965 2.34883 2.28626C1.78695 2.78983 1.34407 3.41218 1.05236 4.10805C0.729658 4.84548 0.568359 5.71559 0.568359 6.71839C0.568359 8.08447 0.842772 9.2229 1.3917 10.1336C1.92487 11.0293 2.71667 11.743 3.6627 12.1805C4.68595 12.648 5.80078 12.8813 6.92562 12.8636C7.67424 12.8757 8.42167 12.7987 9.15202 12.6341C9.80461 12.476 10.315 12.2403 10.6834 11.9271C11.039 11.6407 11.2434 11.2058 11.237 10.7492C11.2369 10.4666 11.1595 10.1893 11.013 9.94759V9.94107C10.7859 9.57508 10.3163 9.43423 9.92533 9.61478C9.63297 9.74508 9.333 9.85732 9.02694 9.95086C8.42689 10.1424 7.80019 10.2378 7.17034 10.2336C6.35243 10.2336 5.64547 10.0487 5.04944 9.67895C4.57305 9.3842 4.24241 8.93174 4.05534 8.32592L10.231 7.4123C10.6965 7.34998 11.0619 7.19119 11.3273 6.93592ZM3.82911 5.96465C3.8973 5.19972 4.14311 4.59967 4.56653 4.16461C5.03106 3.69029 5.67364 3.43143 6.33721 3.45112C7.01372 3.45112 7.52415 3.63895 7.86861 4.01452C8.19261 4.3457 8.39252 4.7788 8.43418 5.24029L3.82911 5.96465Z" fill="#DCC9A3"/>
</svg>
