<svg width="21" viewBox="0 0 13 13" fill="none" xmlns="http://www.w3.org/2000/svg">
<path d="M12.1421 6.88372C12.1421 8.11058 11.8942 9.17723 11.3982 10.0836C10.9207 10.9716 10.1925 11.6998 9.30449 12.1773C8.40751 12.6624 7.3525 12.9052 6.13946 12.906C4.94305 12.906 3.89163 12.6656 2.9853 12.1849C2.09158 11.7173 1.35884 10.9914 0.882887 10.1021C0.387684 9.20149 0.140354 8.12548 0.141115 6.87394C0.141876 5.62239 0.395623 4.5602 0.902464 3.68715C1.39516 2.80681 2.12878 2.08495 3.01684 1.60649C3.91958 1.11053 4.96077 0.862549 6.14054 0.862549C7.33694 0.862549 8.38402 1.11053 9.28165 1.60649C10.1692 2.09158 10.899 2.82139 11.3841 3.7089C11.8901 4.61458 12.1429 5.67285 12.1421 6.88372ZM6.14272 3.6208C5.45283 3.5984 4.7947 3.91827 4.38618 4.4746C3.95112 5.04017 3.7336 5.84318 3.7336 6.88372C3.7336 7.93656 3.94645 8.74359 4.37204 9.30481C4.79763 9.86604 5.38757 10.1437 6.14163 10.1379C6.89863 10.1379 7.48889 9.85439 7.91231 9.28741C8.33573 8.72042 8.54825 7.91916 8.54967 6.88372C8.54967 5.85993 8.33725 5.06225 7.91231 4.49092C7.48737 3.91958 6.89721 3.63244 6.14163 3.6295L6.14272 3.6208Z" fill="#AD2DA5"/>
</svg>
