<svg width="20"  viewBox="0 0 12 13" fill="none" xmlns="http://www.w3.org/2000/svg">
<path d="M11.655 5.23379V12.0392C11.6581 12.4231 11.3703 12.7522 10.9894 12.8005H10.9872C10.6764 12.8416 10.3631 12.8616 10.0497 12.8603C9.37826 12.8603 8.88262 12.7399 8.56286 12.4992C8.24309 12.2585 8.08321 11.8271 8.08321 11.2049V5.35343C8.08321 4.76176 7.90951 4.3267 7.56223 4.04826C7.21962 3.76874 6.76499 3.6317 6.20812 3.6317C5.83429 3.62757 5.4621 3.68032 5.10416 3.78832C4.78961 3.88414 4.48454 4.00856 4.19272 4.16029V12.0479C4.19544 12.4335 3.9046 12.7635 3.52164 12.8092C3.2109 12.8505 2.89755 12.8701 2.5841 12.8679C1.91194 12.8679 1.41956 12.748 1.10708 12.5079C0.794601 12.2679 0.637223 11.8354 0.635047 11.2104V3.74916C0.622104 3.40025 0.709224 3.05492 0.886292 2.75397C1.0763 2.46901 1.32472 2.22766 1.61501 2.04592C2.22061 1.65132 2.88516 1.35537 3.58364 1.16928C4.44538 0.929563 5.33659 0.81275 6.23096 0.822321C7.95813 0.822321 9.29408 1.20267 10.2389 1.96326C11.1837 2.72385 11.6558 3.81409 11.655 5.23379Z" fill="#AD2DA5"/>
</svg>
