<svg width="20" viewBox="0 0 12 17" fill="none" xmlns="http://www.w3.org/2000/svg">
<path d="M10.8775 3.38319C10.3814 2.53657 9.62843 1.86941 8.7283 1.47873C7.80816 1.0676 6.7513 0.8628 5.55783 0.864214C4.75102 0.854316 3.94638 0.951224 3.16502 1.15244C2.54213 1.30677 1.94545 1.55236 1.39434 1.88116C1.13755 2.03104 0.915123 2.23344 0.741754 2.47501C0.697813 2.53537 0.659202 2.59944 0.626464 2.66643C0.495186 2.93704 0.432757 3.23603 0.44483 3.53655V15.0797C0.44483 15.6975 0.594921 16.1216 0.897285 16.3566C1.19965 16.5915 1.67604 16.7046 2.32754 16.7046C2.63055 16.7068 2.93324 16.6838 3.23245 16.6361C3.6053 16.5763 3.88297 16.2524 3.88504 15.8747V12.3105C4.04742 12.3736 4.21818 12.4334 4.39731 12.49C4.90981 12.6431 5.44287 12.7166 5.97766 12.7075C6.98655 12.7236 7.9837 12.4877 8.87839 12.0212C9.73633 11.5629 10.4416 10.8632 10.9068 10.0091C11.3992 9.12811 11.6454 8.0285 11.6454 6.71028C11.6454 5.35291 11.3894 4.24384 10.8775 3.38319ZM7.42748 9.15421C6.95436 9.69803 6.29525 9.96994 5.44145 9.96994C4.99563 9.97755 4.55415 9.88184 4.15151 9.69042C4.05362 9.64365 3.95791 9.59362 3.86437 9.53815V4.01946C4.09256 3.88372 4.3376 3.77844 4.59309 3.70622C4.90752 3.61888 5.23262 3.57603 5.55891 3.57896C6.03508 3.56787 6.50614 3.68033 6.92608 3.90526C7.32666 4.13573 7.64131 4.49052 7.82229 4.91567C8.03112 5.37466 8.13553 5.97428 8.13553 6.71463C8.13553 7.80227 7.90169 8.61474 7.42748 9.15421Z" fill="#AD2DA5"/>
</svg>
