<svg width="14"  viewBox="0 0 9 5" fill="none" xmlns="http://www.w3.org/2000/svg">
<path d="M1.2096 1.88819H0.208972C0.171557 1.82881 0.140235 1.76572 0.115437 1.70003C0.0847653 1.62585 0.0688865 1.54646 0.068669 1.46619C0.05714 1.33284 0.10217 1.20048 0.192662 1.10183C0.272929 1.02482 0.380497 0.982515 0.491763 0.984364H3.33376C3.37063 1.05125 3.40196 1.12108 3.4273 1.19319C3.45797 1.27563 3.47385 1.36297 3.47407 1.45096C3.48952 1.57745 3.44383 1.70395 3.35117 1.79139C3.26503 1.85567 3.15953 1.88863 3.05207 1.88493H2.31356V4.5801C2.31247 4.69746 2.22437 4.79719 2.108 4.81286C2.00652 4.8246 1.9045 4.83048 1.80237 4.83026C1.64988 4.83722 1.49859 4.79948 1.36731 4.72149C1.25855 4.65406 1.22048 4.51267 1.22048 4.29296L1.2096 1.88819ZM6.86533 2.29932L6.43028 3.72957C6.39732 3.84399 6.30694 3.93317 6.19208 3.9645C6.08985 3.98875 5.985 4.00006 5.87993 3.99821C5.75638 4.00148 5.63314 3.98201 5.51666 3.94057C5.42214 3.90968 5.34797 3.83518 5.31762 3.74044L4.83906 2.29823L4.76401 4.58228C4.75977 4.69942 4.67374 4.79861 4.55845 4.81938C4.46861 4.83493 4.37768 4.84288 4.28654 4.84331C4.1359 4.85038 3.98591 4.81808 3.85148 4.74977C3.73902 4.67473 3.67768 4.54258 3.69269 4.40825L3.86018 1.20733C3.92359 1.13228 4.00125 1.07061 4.08858 1.0257C4.2389 0.947059 4.40749 0.909535 4.57694 0.916931C4.7477 0.910732 4.91737 0.948146 5.06964 1.0257C5.19526 1.09628 5.28825 1.21353 5.3285 1.35199L5.856 2.81051L6.47052 1.03983C6.54481 1.00187 6.62376 0.974032 6.70545 0.957173C6.81269 0.934115 6.9221 0.922477 7.03174 0.922368C7.20815 0.915733 7.38348 0.953148 7.54184 1.03113C7.65909 1.08312 7.74512 1.18775 7.77351 1.31283C7.78874 1.42159 7.80723 1.57495 7.82789 1.79357C7.84856 2.01218 7.87031 2.26234 7.89859 2.54513C7.92687 2.82791 7.95298 3.1107 7.97473 3.39566C7.99648 3.68062 8.01714 3.93948 8.03237 4.1755C8.04216 4.31037 8.04978 4.42783 8.0563 4.52681C8.06522 4.65972 7.97973 4.78208 7.85182 4.81938C7.75731 4.84113 7.66051 4.85093 7.5636 4.84875C7.42721 4.85517 7.29158 4.82471 7.17096 4.76065C7.05817 4.68408 6.99009 4.55661 6.98933 4.42022C6.9654 4.16136 6.94723 3.8677 6.93494 3.53923C6.92407 3.21294 6.90449 2.79855 6.87404 2.30585L6.86533 2.29932Z" fill="#AD2DA5"/>
</svg>
